<svg width="96" height="96" viewBox="0 0 96 96" fill="none" xmlns="http://www.w3.org/2000/svg">
<g clip-path="url(#clip0_4626_2033)">
<path d="M2.18896 68.6151C2.18896 78.5323 6.68251 87.1751 13.3614 91.8079V45.4019C6.68271 50.0345 2.18896 58.6986 2.18896 68.6151Z" fill="black"/>
<path d="M72.9853 10.1294C56.4744 -0.46609 41.7495 -0.466675 25.2396 10.1294C19.6144 13.7392 13.9199 21.9021 13.9199 30.5192V91.8067H20.0646V30.5192C20.0646 24.6255 25.9775 17.1167 31.0643 14.5903C44.7275 7.80422 53.4989 7.80422 67.1601 14.5903C72.2469 17.1168 78.1598 24.6255 78.1598 30.5192V91.8067H84.3045V30.5192C84.3045 21.9015 78.61 13.7388 72.9848 10.1294H72.9853Z" fill="black"/>
<path d="M84.8613 45.4031V91.8091C91.54 87.1766 96.0337 78.534 96.0337 68.6163C96.0338 58.6998 91.5403 50.0353 84.8613 45.4031Z" fill="black"/>
<path d="M26.4202 41.4644H22.9748C21.6482 41.4644 20.5728 42.754 20.5728 44.3448V92.8713C20.5728 94.462 21.6482 95.7516 22.9748 95.7516H26.4202C27.7468 95.7516 28.8223 94.462 28.8223 92.8713V44.3448C28.8223 42.754 27.7469 41.4644 26.4202 41.4644Z" fill="black"/>
<path d="M75.2045 41.4644H71.759C70.4324 41.4644 69.3569 42.754 69.3569 44.3448V92.8713C69.3569 94.462 70.4324 95.7516 71.759 95.7516H75.2045C76.531 95.7516 77.6065 94.462 77.6065 92.8713V44.3448C77.6065 42.754 76.531 41.4644 75.2045 41.4644Z" fill="black"/>
<path d="M29.066 66.2467C29.2768 66.2339 29.4875 66.2359 29.6983 66.2467C29.7079 66.5132 29.875 67.6739 29.9163 71.8375C29.9163 71.9216 29.9309 72.0042 29.9518 72.0846C29.9855 72.8566 29.9193 73.3324 29.9942 73.6225C30.013 74.3772 29.9968 75.1333 30.0019 75.8884H30.5124C31.0359 73.6958 30.9408 70.813 30.9972 69.1626C31.0494 68.9811 31.0271 68.7868 31.0395 68.5992C31.0695 68.4798 31.1174 68.0149 31.125 67.9256C31.143 67.9476 31.1793 67.9917 31.1973 68.0137C31.2011 68.296 31.2116 68.3119 31.2951 68.7642C31.3118 68.7642 31.3456 68.7637 31.3622 68.7637C31.3828 68.6601 31.405 68.5581 31.4264 68.4551L31.4584 68.4546C31.4683 68.7242 31.4234 69.0031 31.4918 69.265C31.5157 69.5208 31.467 69.7849 31.5332 70.034C31.5388 70.1324 31.5418 70.2303 31.5461 70.3293C31.573 70.2755 31.6008 70.2211 31.6286 70.1673C31.6311 69.3995 31.6485 70.2067 31.6722 69.1451C31.6872 69.1774 31.7171 69.242 31.732 69.2743C31.7474 69.2753 31.7778 69.2769 31.7928 69.2779C31.9214 68.5824 31.9176 68.208 31.9706 66.2451C32.3682 66.2328 32.7663 66.2297 33.1638 66.2476C33.1647 66.383 33.163 66.5214 33.2019 66.6506C33.2349 67.4257 33.2718 67.2765 33.3002 67.7574C33.376 67.9277 33.4114 67.9452 33.5584 68.9687C33.5777 68.9687 33.6161 68.9687 33.6354 68.9693C33.6576 68.3885 33.6841 68.8546 33.6824 68.1982L33.7248 68.1988C33.7294 68.4171 33.6974 68.6438 33.7581 68.8555C33.7726 69.06 33.7431 69.2722 33.8005 69.4706C33.8154 69.6752 33.7855 69.8879 33.8432 70.0858C33.8582 70.2903 33.8282 70.5025 33.886 70.7009C33.9039 70.9224 33.8668 71.152 33.9283 71.3668C33.9497 71.6057 33.9056 71.8533 33.9711 72.085C33.9856 72.2896 33.9566 72.5018 34.0134 72.7002C34.0597 73.5837 34.0873 73.7076 34.1528 73.9649C34.1734 73.9408 34.2144 73.8931 34.2353 73.869C34.2262 73.6455 34.2739 73.3048 34.4294 72.9955C34.4636 73.0632 34.4983 73.1319 34.5333 73.2001C34.5342 73.2242 34.5359 73.2724 34.5367 73.2965C34.5803 73.3934 34.6253 73.4928 34.6958 73.5672C34.7211 73.2851 34.709 73.3521 34.7702 73.055C34.7777 73.0042 34.8245 72.5847 34.8459 72.1364C34.9049 71.9205 34.8698 71.6914 34.8873 71.4694C34.9527 71.2377 34.9083 70.9901 34.9301 70.7517C34.9301 70.7517 35.2598 66.9537 35.2717 66.7531C35.3208 66.5911 35.3072 66.4173 35.3072 66.2492C35.3914 66.2492 35.4765 66.2492 35.562 66.2487C35.562 66.4342 35.5436 66.6255 35.5962 66.8039C35.6036 67.0099 35.6034 69.2229 35.6817 69.522C35.7035 69.7603 35.6586 70.0079 35.7245 70.2396C35.7386 70.4442 35.7108 70.6559 35.7659 70.8543C35.7958 71.5552 35.811 71.4331 35.8642 71.8708C35.8852 71.8944 35.9271 71.9416 35.948 71.9651C35.9668 71.942 36.0044 71.8964 36.0233 71.8734C36.0776 71.673 36.134 71.4694 36.1237 71.2551C36.1409 71.2772 36.1746 71.3208 36.1917 71.3423C36.2067 71.3997 36.2225 71.4576 36.2396 71.515C36.2401 71.5632 36.2413 71.6114 36.243 71.6596C36.2789 71.7129 36.3161 71.7673 36.3542 71.8201C36.4369 71.455 36.4291 71.5005 36.4696 71.2398C36.4888 71.2177 36.5269 71.1741 36.5461 71.1521C36.5449 71.2372 36.5444 71.3233 36.544 71.4089C36.565 71.4315 36.6064 71.4761 36.6273 71.4987C36.7538 70.603 36.7012 69.6165 36.8539 67.9937H36.8792C36.8917 68.1364 36.9013 68.3008 37.0087 68.6986C37.0106 68.8011 37.1097 70.4191 37.3238 71.2946C37.3421 71.272 37.3789 71.2264 37.3973 71.2034C37.5198 70.0286 37.4056 72.2329 37.6572 66.6091L37.6876 66.6096C37.7072 66.7014 37.7286 66.7927 37.75 66.8844C37.7693 66.8624 37.8073 66.8173 37.8265 66.7947C37.834 66.4449 37.8298 66.5437 37.8851 66.2472C38.204 66.2308 38.523 66.2303 38.8423 66.2462C38.8956 66.6135 38.9917 67.2902 39.0292 67.7051C39.0488 67.6831 39.0886 67.6385 39.1087 67.616C39.1152 67.406 39.199 66.7728 39.2511 66.5953C39.2695 66.6173 39.3067 66.6609 39.325 66.683C39.3234 67.441 39.3297 66.8979 39.3712 67.4816C39.3917 67.4822 39.4323 67.4822 39.4528 67.4822C39.4528 67.3791 39.4533 67.2761 39.4541 67.1736H39.5379C39.5495 67.4427 39.5037 67.7216 39.5725 67.9835C39.5913 68.205 39.5524 68.4357 39.6153 68.6505C39.6298 68.855 39.6008 69.0673 39.6572 69.2656C39.6794 69.7596 39.7534 70.4145 39.7838 70.5467C39.7668 70.9594 40.2273 72.6107 40.266 73.7072C40.2869 73.6841 40.3284 73.6375 40.3493 73.6144C40.3523 73.5313 40.3562 73.4483 40.3622 73.3657C40.4053 73.2001 40.3951 73.0248 40.4036 72.8541C40.4588 72.6552 40.431 72.4435 40.4455 72.239C40.5024 72.0405 40.4729 71.8283 40.4882 71.6238C40.5447 71.4254 40.516 71.2131 40.531 71.0081C40.565 70.8889 40.6149 70.0386 40.6178 69.9828C40.622 69.9635 40.6655 69.6639 40.705 69.461C40.8046 69.2836 40.8765 69.0867 40.9616 68.8996C40.9774 68.9211 41.0086 68.9652 41.0244 68.9873C41.1657 69.608 41.2818 71.3674 41.2818 71.3675C41.3355 72.3496 41.3997 72.7682 41.4216 73.0505C41.4417 73.0735 41.4823 73.1192 41.5024 73.1422C41.5058 73.0914 41.927 68.5826 41.9393 68.0804C41.9667 67.9764 41.9932 67.8723 42.0235 67.7698C42.0436 67.7928 42.0834 67.8389 42.1035 67.862C42.1039 67.8954 42.1043 67.9615 42.1043 67.9948C42.124 67.9948 42.1638 67.9943 42.1834 67.9943C42.2439 67.573 42.2437 67.8106 42.2869 67.214C42.3365 67.0146 42.3112 66.8039 42.3258 66.5994C42.3583 66.4866 42.3621 66.3672 42.3672 66.2493C42.4639 66.2483 42.5613 66.2483 42.6592 66.2457C42.6952 67.1237 42.8166 71.0053 42.9251 72.0283C43.0614 71.7158 43.0874 70.9643 43.0867 70.6806C43.1124 70.7344 43.1384 70.7882 43.1649 70.8431C43.2139 71.3457 43.2279 71.1218 43.2603 71.5521C43.2804 71.5295 43.3206 71.4839 43.3411 71.4609C43.3445 71.3947 43.3492 71.3291 43.3552 71.2635C43.5053 70.6452 43.5514 66.5825 43.6139 66.2478C44.1602 66.2283 44.7071 66.2298 45.2534 66.2463C45.3763 66.7921 45.2444 66.3422 45.4078 66.8692C45.457 66.8671 45.5066 66.8651 45.557 66.863C45.7377 67.5566 45.7843 69.0029 45.8563 69.2658C45.8678 69.4846 45.8451 69.7113 45.9208 69.9183C46.0102 69.8614 46.0931 69.6748 46.2021 69.7856C46.2173 69.889 46.2577 70.1214 46.2838 70.2382C46.2885 70.3546 46.2863 70.4725 46.3005 70.5883C46.347 70.6924 46.4556 70.6514 46.5365 70.6673C46.6591 71.2041 46.7401 71.6982 46.7737 71.9725C46.966 71.8307 46.9895 71.677 47.0687 71.2984C47.1226 71.1825 47.1966 71.083 47.2761 70.9913C47.2757 70.9251 47.2757 70.859 47.2766 70.7934C47.2954 70.8154 47.3326 70.8595 47.3514 70.8816C47.3676 70.9867 47.3881 71.0908 47.4104 71.1953C47.4279 71.1727 47.4634 71.1271 47.4809 71.1046C47.5126 70.9656 47.5493 70.8288 47.5874 70.6924C47.6028 70.7144 47.6336 70.7595 47.6489 70.7816C47.7291 71.1974 47.6646 70.9902 47.7494 72.0135C47.7703 71.9904 47.8114 71.9447 47.8319 71.9222C47.8332 71.8053 47.8353 71.6885 47.8421 71.5721C47.9144 71.2896 47.855 70.9903 47.8845 70.7006C47.9644 70.3331 47.8905 69.9476 47.9273 69.5728C48.0093 69.1371 47.9307 68.6829 47.97 68.2399C48.0517 67.8042 47.9734 67.3495 48.0124 66.9066C48.0718 66.6949 48.0414 66.4683 48.0457 66.2499H48.2885C48.4098 66.9339 48.2849 67.0443 48.3796 67.4198C48.401 67.6581 48.3574 67.9057 48.4215 68.138C48.4561 68.9517 48.5264 69.0706 48.5617 69.4093C48.5814 69.4324 48.6203 69.479 48.6399 69.5021C48.7464 69.1485 48.6203 68.8528 48.7874 68.199C48.8028 68.199 48.8344 68.1985 48.8503 68.1985C48.8537 68.2768 48.9355 69.1059 49.0021 69.4083C49.1576 69.0115 49.1586 66.6555 49.1581 66.2474C49.6181 66.2294 50.079 66.2315 50.5395 66.2489C50.5433 66.3135 50.5493 66.3832 50.5801 66.4401C50.6395 66.4192 50.6588 66.3156 50.6387 66.2515C50.672 66.2515 50.7383 66.2525 50.7716 66.2525C50.781 66.352 50.7921 66.4514 50.8161 66.5478C50.8524 66.9051 50.7793 67.2742 50.8589 67.6248C50.8892 67.9139 50.8277 68.2143 50.902 68.4963C50.9234 68.7346 50.8794 68.9822 50.9439 69.2139C50.9726 69.5523 50.9123 69.9009 51.0003 70.231C51.017 70.252 51.0499 70.2946 51.0662 70.3161C51.1136 70.2105 51.165 70.107 51.2269 70.0116C51.3683 70.5929 51.4 71.1948 51.4291 71.7736C51.5634 71.522 51.5021 71.3067 51.7314 69.2437C51.7836 69.1781 51.8366 69.1135 51.8905 69.0489C51.9659 68.2768 51.9529 67.9819 52.1248 67.4033C52.1598 67.4725 52.194 67.5427 52.2291 67.6135C52.5241 69.6337 52.3722 71.326 52.7379 72.8538C52.7323 73.1501 52.8041 73.4382 52.7892 73.7345C52.7853 73.8524 52.7909 73.9718 52.8242 74.0841C52.8417 74.4634 52.8285 74.8438 52.8306 75.2242C52.8293 75.4472 52.8849 75.6646 52.8802 75.8886H52.9602C53.0076 75.7405 53.0102 75.5826 53.0085 75.4267C53.0038 75.2699 53.044 75.1191 53.0496 74.9643C53.0568 74.771 53.0363 74.5768 53.0662 74.3855C53.1175 74.1005 53.0786 73.8078 53.1013 73.5197C53.165 73.288 53.1218 73.0408 53.1432 72.8025C53.1953 72.621 53.174 72.4267 53.1864 72.2391C53.221 72.1201 53.2222 71.9935 53.2236 71.8689C53.2497 71.8151 53.2766 71.7613 53.3044 71.708C53.3048 71.7485 53.3048 71.8295 53.3048 71.8699C53.3253 71.893 53.366 71.9397 53.3865 71.9632C53.4782 71.5742 53.4827 71.0078 53.4852 70.9569C53.5498 70.7252 53.5058 70.478 53.5276 70.2392C53.6011 69.9572 53.5404 69.6573 53.5707 69.3677C53.6455 69.0683 53.581 68.7515 53.6131 68.4449C53.6832 68.1656 53.634 67.8697 53.6464 67.5831L53.6746 67.5837C53.898 68.8083 53.5886 68.8231 54.065 70.9553C54.0667 71.1742 54.0803 71.3926 54.1206 71.6064C54.1582 71.6781 54.1966 71.7494 54.2364 71.8206C54.3431 70.7119 54.2557 70.8795 54.2975 70.393C54.3719 70.0936 54.3087 69.7768 54.3403 69.4702C54.4146 69.1708 54.351 68.854 54.383 68.5474C54.4553 68.246 54.4001 67.9271 54.4185 67.6185C54.6029 67.5102 54.7104 66.4921 54.7229 66.2472C55.3031 66.2298 55.8841 66.2303 56.4642 66.2472C56.4651 66.3825 56.462 66.5215 56.5027 66.6507C56.5702 67.5744 56.5535 67.6715 56.5531 67.86C56.5745 67.8374 56.6164 67.7933 56.6373 67.7708C56.6526 67.6429 56.6373 67.7147 56.6963 67.4812H56.7528C57.1183 69.4849 56.8447 73.1284 57.2667 73.7719C57.4939 73.1932 57.5353 70.9163 57.5471 70.8032C57.5636 70.7426 57.9271 66.9167 57.9298 66.8661H57.9648C57.9802 67.1865 57.9251 67.5172 57.999 67.8299C58.0097 68.018 57.9905 68.2113 58.0396 68.3933C58.0443 68.4722 58.0482 68.5517 58.0525 68.6316C58.1067 68.7357 58.1628 68.8392 58.2158 68.9449C58.2192 69.0531 58.2256 69.1622 58.2551 69.2658C58.2667 69.4534 58.2449 69.6482 58.2979 69.8297C58.3192 70.068 58.2756 70.3151 58.3402 70.5469C58.3714 70.8529 58.3077 71.1702 58.3825 71.4696C58.415 71.7931 58.3487 72.1268 58.4253 72.4437C58.4554 73.0485 58.3955 73.7759 58.4676 74.0329C58.4736 74.1493 58.4758 74.2662 58.4779 74.383C58.4988 74.4061 58.5403 74.4522 58.5608 74.4753C58.7328 73.0955 58.7074 72.5358 58.825 71.8885L58.8506 71.89C58.9587 72.4394 58.8876 72.1723 58.999 72.6282C59.0174 72.6062 59.0546 72.5615 59.073 72.5395C59.1932 71.9631 59.3361 68.3005 59.3367 68.2498L59.3714 68.2503C59.3735 68.2764 59.3778 68.3287 59.3795 68.3543C59.409 68.3533 59.468 68.3502 59.4971 68.3492C59.6125 68.8433 59.7913 70.8984 59.7934 70.9062C59.8186 71.1605 59.7433 71.4989 59.9541 71.6654C60.5573 68.9592 60.4218 67.8532 60.5835 66.2453C61.1448 66.232 61.7066 66.232 62.2684 66.2442C62.2838 66.3104 62.3 66.376 62.3175 66.4416C62.3175 66.4417 62.5732 69.8296 62.5732 69.8297C62.6965 71.9166 62.5021 70.3056 62.7985 72.7425C62.8186 72.7656 62.8583 72.8112 62.8784 72.8338C62.8841 72.7829 63.0845 71.2946 63.1016 70.8375C63.291 71.2789 63.1673 71.2508 63.3551 71.625C63.4017 71.6019 63.4509 71.5875 63.5022 71.5814C63.533 71.6301 63.5629 71.6809 63.5916 71.7337C63.6142 71.7363 63.6595 71.7413 63.6822 71.7439C63.713 71.6804 63.7438 71.6173 63.7759 71.5543C63.8408 71.211 63.9392 70.5629 63.9589 70.2486L63.9935 70.2496C64.0093 70.6213 63.9507 71.0027 64.026 71.3672C64.0572 71.6737 63.9935 71.9905 64.0691 72.2905C64.0828 72.495 64.0559 72.7062 64.1102 72.9052C64.1153 72.9943 64.1187 73.0841 64.123 73.1738H64.2051C64.2066 73.123 64.3183 71.6732 64.4321 71.1062C64.4496 71.1278 64.4843 71.1713 64.5014 71.1929C64.5023 71.3205 64.5026 71.4507 64.5386 71.5727C64.5476 71.744 64.5343 71.9203 64.5822 72.0854C64.5947 72.325 64.5576 72.2879 64.6878 73.3608C64.7742 73.1548 64.766 72.9241 64.7728 72.7001C64.8416 72.434 64.7878 72.1526 64.8152 71.8798C64.8934 71.5292 64.8224 71.1606 64.8579 70.8033C64.9374 70.4357 64.8635 70.0502 64.9003 69.6755C64.9777 69.3422 64.908 68.9906 64.9426 68.6502C65.0187 68.276 64.9584 67.8833 64.9764 67.5013C64.9973 67.4793 65.0388 67.4347 65.0598 67.4122C65.0585 67.5521 65.0546 67.6961 65.0953 67.8305C65.1047 68.0012 65.0906 68.178 65.1384 68.3426C65.1607 68.5809 65.1154 68.8291 65.1812 69.0608C65.203 69.2991 65.1581 69.5467 65.224 69.778C65.2419 70 65.2051 70.2296 65.2663 70.4449C65.3168 71.4529 65.3464 71.4188 65.4112 71.7194C65.4322 71.745 65.4745 71.7957 65.4955 71.8209C65.5352 71.7501 65.575 71.6794 65.6148 71.6081C65.7573 70.8469 65.8744 70.6941 65.9282 69.676C65.986 69.4102 66.2625 66.299 66.2634 66.2479C66.9029 66.2285 67.543 66.2305 68.1825 66.2479C68.1791 67.7415 68.1707 67.7292 68.2167 67.8807C68.2509 68.2216 68.1808 68.5733 68.2591 68.9065C68.2894 69.1956 68.2279 69.4955 68.3022 69.778C68.3262 70.0338 68.277 70.2983 68.3441 70.5475C68.3707 71.2523 68.3823 70.9385 68.4399 71.5199C68.5305 71.5815 68.6302 71.6358 68.6875 71.7475C69.2219 71.6388 69.028 70.0279 69.3568 67.9994V65.4896C69.3483 65.4354 69.3402 65.3767 69.333 65.3082C69.3065 65.2528 69.2809 65.198 69.256 65.1431C69.0815 63.98 69.2334 64.9175 69.1146 62.9075C69.0998 62.8566 68.9935 61.7524 68.9906 61.7109C68.9564 61.6587 68.9243 61.6064 68.8906 61.5551C68.7628 62.0731 68.6557 63.4323 68.6482 63.7697C68.605 63.7 68.5635 63.6287 68.5233 63.558V63.4627C68.475 63.3607 68.4284 63.2586 68.3805 63.1576C68.3591 63.1879 68.3168 63.2479 68.2954 63.2781C68.2488 63.2781 68.2035 63.2776 68.159 63.2776C68.1244 63.2361 68.0911 63.1945 68.0581 63.153C68.0178 62.8497 68.0132 62.923 67.9606 62.0365C67.8987 61.8217 67.938 61.5915 67.9179 61.3695C67.8593 61.1716 67.8918 60.9594 67.8751 60.7548C67.8349 60.597 67.8396 60.4309 67.8182 60.2699C67.808 60.2489 67.7879 60.2068 67.7776 60.1858C67.7473 60.0017 67.7554 59.8131 67.7468 59.627C67.6953 59.4531 67.6637 58.7038 67.6609 58.6529C67.5778 58.368 67.6041 56.6899 67.4014 56.0482L67.383 56.0488C67.3714 56.0826 67.3488 56.1503 67.3373 56.1846C67.3177 56.4139 66.7986 62.5794 66.7661 62.7648L66.7315 62.7654C66.7192 62.3269 66.7319 62.542 66.6729 62.201H66.6126C66.516 62.6423 66.5227 62.5875 66.5092 62.7315C66.4968 62.7679 66.4716 62.8407 66.4591 62.8766C66.4066 62.852 66.3557 62.8269 66.3052 62.8023C66.1369 63.5609 66.2002 64.3315 66.0346 66.2032C65.7828 66.2155 65.531 66.2191 65.28 66.2037C65.1646 65.9356 65.2928 65.6162 65.1984 65.3389C64.9522 62.4333 65.0679 64.0243 64.7576 61.5684C64.7396 61.59 64.7041 61.633 64.6862 61.6546C64.5301 63.0813 64.501 64.776 64.4976 64.8268C64.4536 64.9697 64.458 65.0011 64.463 66.2038C64.2373 66.2161 64.0115 66.2156 63.7862 66.2043C63.7832 66.1401 63.7495 65.611 63.6199 65.037C63.5414 64.681 63.5106 63.0289 63.3501 62.3821C63.3313 62.4056 63.2937 62.4533 63.2749 62.4769C63.2749 62.477 63.1565 63.5191 63.1565 63.5191C63.0653 63.9846 63.0568 63.9724 63.0487 64.2281C63.0051 64.3075 62.9598 64.3849 62.9132 64.4613C62.8632 64.4157 62.8149 64.3706 62.7657 64.327C62.5248 65.2785 62.6972 65.7911 62.5789 66.2013C62.4938 66.2018 62.4092 66.2023 62.3254 66.2053C62.3181 65.968 62.3549 65.7229 62.2916 65.4933C62.2625 65.2205 62.3198 64.9381 62.2488 64.673C62.2223 64.4178 62.2736 64.1527 62.2065 63.9041C62.1945 63.7298 62.1958 63.555 62.1975 63.3802H62.1586C62.1538 63.4693 62.15 63.5586 62.1449 63.6483C62.094 63.8262 62.1119 64.0158 62.1124 64.2004H62.0692C62.0471 62.145 61.9576 59.9483 61.5917 55.9751C61.5579 55.9064 61.5254 55.8387 61.492 55.7711C61.4412 55.8536 61.3924 55.9372 61.3479 56.0243C61.3117 56.2762 61.3223 56.2059 61.2719 56.4426C61.1038 57.164 60.8379 60.3448 60.8379 60.3448C60.8204 60.5494 60.8529 60.7621 60.7951 60.96C60.6831 62.2999 60.8167 62.3521 60.6681 63.0613C60.6592 63.2157 60.666 63.374 60.6245 63.5227C60.6134 63.7012 60.6168 63.8795 60.6066 64.0579C60.5335 64.3404 60.595 64.6398 60.5638 64.9294C60.4873 65.2457 60.5557 65.58 60.521 65.9029C60.4958 66.0014 60.4855 66.1034 60.4766 66.2054C60.1525 66.2172 59.8284 66.2203 59.5048 66.2028C59.5079 65.5871 59.4792 65.943 59.4573 65.4815L59.4232 65.4821C59.3761 65.9173 59.3706 65.6517 59.3757 66.1997C59.318 66.1992 59.2611 66.1992 59.2047 66.1997C59.2085 65.6524 59.1305 65.2465 59.1051 65.0412C58.9515 65.1469 58.8631 66.0139 58.8555 66.2049C58.5635 66.2197 58.2715 66.2182 57.9799 66.2028C57.8492 65.7174 57.9874 65.4539 57.888 65.0319C57.8563 64.7428 57.9187 64.4429 57.8452 64.1605C57.8315 63.9482 57.8409 63.735 57.8281 63.5227C57.7923 63.3998 57.7541 62.523 57.7276 62.3698C57.6721 62.1049 57.6719 62.1011 57.6648 61.9715C57.6242 61.9002 57.5831 61.8295 57.5412 61.7598C57.54 61.7367 57.537 61.6901 57.5357 61.667C57.4805 61.5445 57.4207 61.4255 57.3497 61.3158C57.3061 61.3716 57.2638 61.4276 57.2215 61.4839C57.1975 61.4839 57.1496 61.4834 57.1257 61.4834C57.112 61.5173 57.085 61.5854 57.0714 61.6192C57.0692 61.7592 57.0723 61.9022 57.0333 62.036C57.0081 62.5046 57.0402 62.9747 57.0158 63.4427C56.9325 63.717 57.0308 64.0174 56.9474 64.2917C56.9389 64.4255 56.9376 64.5598 56.938 64.6941C56.917 64.7161 56.8747 64.7602 56.8538 64.7828C56.8542 64.6259 56.8657 64.4639 56.8191 64.3142C56.7901 64.042 56.8469 63.7595 56.7764 63.494C56.755 63.1792 56.7802 62.8634 56.7589 62.5486C56.6815 62.2154 56.7516 61.8637 56.7161 61.5233C56.6482 61.2747 56.6999 61.0097 56.6738 60.7544C56.6298 60.6165 56.637 60.4673 56.6383 60.3227C56.6174 60.3012 56.575 60.2571 56.5541 60.2356C56.5408 60.5104 56.5887 60.7949 56.5199 61.062C56.4994 61.2835 56.5387 61.5136 56.4771 61.7284C56.4502 61.9838 56.5028 62.2488 56.4343 62.4974C56.4164 62.7609 56.4352 63.0254 56.4173 63.2889C56.3471 63.5678 56.3967 63.8631 56.3831 64.1491H56.3408C56.3403 63.9815 56.3548 63.8082 56.3061 63.6478C56.2942 63.4524 56.3001 63.2566 56.289 63.0613C56.2232 62.8362 56.1664 61.0809 56.0282 60.7257C55.8285 60.7447 55.7997 60.6467 55.6828 59.7789C55.6409 59.5774 55.6593 59.3682 55.6499 59.1632C55.3577 57.9954 55.368 57.346 55.2236 56.6482C55.2035 56.6702 55.1633 56.7148 55.1432 56.7368C54.9461 60.7626 54.4967 66.1522 54.4879 66.2031C54.1835 66.2184 53.879 66.2195 53.5747 66.202C53.473 65.7789 53.5768 66.1983 53.4541 65.5545C53.371 65.6238 53.3403 65.7213 53.2946 66.202C52.9757 66.2184 52.6563 66.2179 52.3374 66.2041C52.3233 66.1687 52.2955 66.0979 52.2814 66.0626C52.26 65.737 52.3182 65.4013 52.2451 65.0829C52.213 64.7933 52.2755 64.4934 52.2019 64.2115C52.1865 63.9823 52.1998 63.7516 52.1848 63.5225C52.1275 63.3246 52.1583 63.1124 52.1425 62.9073C52.0839 62.71 52.116 62.4972 52.0997 62.2922C52.0458 62.1112 52.0694 61.9164 52.0565 61.7288C52.0082 61.5637 52.0236 61.3874 52.0134 61.2161C51.9822 61.1095 51.9774 60.9967 51.974 60.8855C51.9539 60.8634 51.9137 60.8199 51.8936 60.7984C51.8925 60.8871 51.9229 61.3359 51.7953 61.9749C51.6933 61.7556 51.6796 61.3147 51.6701 61.1136C51.6346 60.9911 51.635 60.8604 51.6346 60.7327C51.6145 60.7107 51.5743 60.6671 51.5542 60.6456C51.5534 60.785 51.5593 60.9286 51.5179 61.0619C51.4386 61.825 51.4241 64.4096 51.4148 64.6216C51.3536 64.8277 51.4152 65.061 51.3131 65.2537C51.1641 64.4823 51.1189 62.8044 51.116 62.7535C51.1065 62.7207 50.992 61.3883 50.9903 61.3294H50.9569C50.9533 61.3803 50.9053 62.1003 50.877 62.1896C50.8612 62.4193 50.8745 62.6494 50.8595 62.8791C50.7714 63.1867 50.8792 63.522 50.7911 63.83C50.7748 64.0899 50.7842 64.3509 50.7825 64.6113L50.7411 64.6098C50.7406 64.4693 50.7394 64.3288 50.7308 64.1889C50.6355 63.7962 50.7582 63.3743 50.6629 62.9816C50.6423 62.6838 50.6658 62.3844 50.6453 62.087C50.5705 61.7877 50.6355 61.4703 50.6026 61.1643C50.5372 60.9326 50.5837 60.685 50.5602 60.4466C50.4884 60.1626 50.5423 59.8606 50.5239 59.569C50.5102 59.5347 50.4825 59.4665 50.4687 59.4326L50.4521 59.4311C50.3358 59.8044 50.362 60.0084 50.2216 60.3108C50.1686 60.3077 50.1165 60.3051 50.0647 60.3026C50.0502 60.4527 50.037 60.6871 49.9074 61.0403C49.8548 61.0136 49.8031 60.987 49.7526 60.9593C49.7086 61.0203 49.6672 61.0833 49.6274 61.148C49.5522 61.9869 49.5488 62.6261 49.3093 64.6488C49.2781 64.7303 49.2307 64.799 49.1678 64.8467C49.1364 64.2632 49.0572 64.0144 49.0263 63.6548C49.007 63.6333 48.9682 63.5897 48.9489 63.5681C48.7541 65.0867 48.7726 65.4114 48.6744 65.8407L48.6488 65.8412C48.4047 64.1439 48.4417 63.966 48.3273 63.4615C48.2315 63.4795 48.1729 63.5527 48.1584 63.6665C48.0874 63.7629 48.019 63.8619 47.96 63.969C47.9545 64.0198 47.6946 65.5048 47.7043 66.2026C47.3529 66.2211 47.001 66.219 46.6496 66.2026C46.5721 65.7956 46.5722 64.8852 46.453 63.8609C46.3335 64.1092 46.3765 64.3967 46.2871 64.8667H46.2568C46.2521 64.7498 46.2486 64.6313 46.2178 64.5191C46.2084 64.3751 46.2067 64.2305 46.1982 64.0865C46.1877 64.0516 46.0743 62.8476 46.0738 62.8356C46.0571 62.8141 46.0233 62.7716 46.0067 62.75C45.8787 63.1648 45.9101 63.6345 45.8147 65.1338C45.7687 65.2905 45.7556 65.9705 45.6946 66.2011L45.6663 66.2006C45.6535 66.1663 45.6275 66.0976 45.6142 66.0632C45.6121 65.9233 45.6151 65.7803 45.5753 65.6465C45.5518 65.4081 45.5975 65.1605 45.5325 64.9292C45.506 64.6735 45.5582 64.4084 45.4898 64.1603C45.4765 63.9481 45.4855 63.7348 45.4727 63.5226C45.3649 63.1514 45.5329 62.7259 45.3641 62.3753C45.2832 62.9668 45.3191 62.7266 45.3012 63.0838C45.2367 63.3155 45.282 63.5631 45.2589 63.8015C45.1785 64.0588 45.27 64.3418 45.1909 64.5991C45.1781 64.7904 45.1811 64.9826 45.1819 65.1743L45.1401 65.1748C45.1401 65.0169 45.1405 64.8585 45.1302 64.7016C45.1302 64.7016 45.0378 63.8353 44.9566 63.1437C44.9066 63.2701 44.835 63.5152 44.7899 63.8137C44.7552 63.884 44.7206 63.9547 44.6851 64.0244C44.519 63.6037 44.49 63.1151 44.4756 62.9894C44.2013 62.2581 44.2532 61.5074 44.1016 61.0203H44.0819C43.9111 61.5924 44.1031 61.1305 43.7891 63.2611C43.7801 63.2821 43.7621 63.3247 43.7535 63.3457C43.7377 63.4466 43.7257 63.5482 43.7125 63.6496C43.6663 63.867 43.6933 64.0931 43.6775 64.314C43.6146 64.5283 43.6544 64.7585 43.6343 64.9805C43.6053 65.0916 43.5546 65.5724 43.5505 65.6234C43.4958 65.6669 43.4411 65.7095 43.3872 65.7531C43.3684 66.0821 43.3935 65.8273 43.3299 66.2042C43.1371 66.2144 42.9442 66.2144 42.7518 66.2067C42.7467 66.0868 42.7441 65.9653 42.7108 65.8515C42.6907 65.6295 42.73 65.3993 42.6676 65.185C42.6514 64.9805 42.6826 64.7682 42.6257 64.5704C42.6018 64.1875 42.6317 63.803 42.6078 63.42C42.6078 63.42 42.3388 60.232 42.1764 59.484H42.1046C42.1053 59.7642 42.0585 60.3367 42.0268 60.4467C42.0096 60.6513 42.0417 60.864 41.984 61.0619C41.96 61.3002 42.0067 61.5478 41.9412 61.7795C41.9173 62.0179 41.9635 62.2655 41.8985 62.4972C41.8848 62.7094 41.8946 62.9227 41.8814 63.1349C41.8198 63.3497 41.8587 63.5799 41.839 63.8014C41.7762 64.0157 41.816 64.2458 41.7963 64.4678C41.7334 64.6821 41.7728 64.9123 41.7535 65.1338C41.6838 65.3819 41.7364 65.6474 41.7099 65.9027C41.6847 66.0011 41.6744 66.1031 41.6654 66.2046C41.4884 66.2118 41.3119 66.2118 41.1357 66.2052C41.1182 66.139 41.1007 66.0734 41.0831 66.0089C41.0561 65.1039 41.1155 64.7601 41.0434 64.5191C41.0191 64.0789 41.0387 61.0582 40.7676 59.9156C40.4541 59.8541 40.6105 59.2319 40.4235 58.6627L40.4021 58.6638C40.1854 61.1971 40.2868 62.177 40.214 63.2376C40.1345 63.495 40.2242 63.7774 40.1465 64.0353C40.1375 64.1793 40.1358 64.3239 40.1272 64.468C40.0947 64.5853 40.0913 64.7099 40.087 64.8329C40.0751 64.8704 40.0507 64.9457 40.0387 64.9831C40.0216 64.9621 39.987 64.919 39.9699 64.898C39.9634 64.509 39.9589 64.8535 39.913 64.1378C39.8446 63.9133 39.9169 63.6666 39.8468 63.4426C39.8301 63.1832 39.8395 62.9223 39.8378 62.6624H39.7587C39.7566 62.7132 39.703 63.4255 39.6753 63.5226C39.6633 63.7179 39.6698 63.9137 39.6582 64.109C39.5898 64.3571 39.6415 64.6222 39.6154 64.8774C39.5436 65.143 39.6017 65.4255 39.5723 65.6977C39.5236 65.8591 39.5368 66.0324 39.5377 66.2006C39.5163 66.2 39.4744 66.2 39.453 66.1995C39.4485 66.0961 39.3157 62.5997 39.3157 62.5997C39.3139 62.5934 39.0497 59.6282 38.9788 59.3096C38.9613 59.3322 38.9263 59.3768 38.9083 59.3993C38.8569 59.6757 38.8598 59.5502 38.8519 59.9474C38.8373 59.9458 38.8087 59.9433 38.7942 59.9417C38.7484 59.8643 38.7002 59.789 38.6518 59.7141C38.5141 60.5512 38.4353 61.8515 38.3607 62.3383C38.3517 62.3593 38.3337 62.4014 38.3248 62.4224C38.3111 62.5019 38.2991 62.5824 38.288 62.6624H38.256C38.2573 62.2101 38.1784 61.6587 38.117 61.2064C38.0918 61.2577 38.067 61.3095 38.0431 61.3612C38.0422 61.535 38.0584 61.715 38.0084 61.8821C37.9789 62.1543 38.0358 62.4367 37.9657 62.7023C37.9289 63.0596 38.0003 63.4277 37.9234 63.7789C37.917 63.8742 37.9135 63.9706 37.911 64.0665C37.8845 64.1213 37.858 64.1762 37.8323 64.231C37.7842 64.7682 37.8164 64.1375 37.7767 64.9288C37.716 65.1436 37.7537 65.3732 37.7348 65.5952C37.6763 65.7905 37.7028 66.0007 37.7007 66.2032C37.3723 66.2181 37.0444 66.2207 36.7165 66.2038C36.7144 66.0008 36.7396 65.7911 36.6831 65.5953C36.6515 65.3062 36.7135 65.0063 36.64 64.7243C36.625 64.4946 36.6374 64.2644 36.6229 64.0353C36.5442 63.6846 36.6156 63.315 36.5805 62.9572C36.5152 62.662 36.5553 62.6639 36.4048 62.0811C36.3485 61.8033 36.3692 61.8191 36.277 61.5202C36.2599 61.5418 36.2248 61.5849 36.2073 61.6064C36.0322 63.2859 36.0787 63.0307 35.9508 63.3089C35.9214 63.5965 35.8707 63.655 35.8127 64.0691C35.7781 64.1383 35.7443 64.207 35.7096 64.2757C35.6959 64.2357 35.669 64.1558 35.6553 64.1158C35.6433 63.8529 35.6355 63.8309 35.5985 63.6365C35.5797 63.6365 35.5412 63.6365 35.522 63.6359C35.5198 63.7154 35.5168 63.7948 35.5143 63.8743C35.3647 63.4979 35.4699 63.4182 35.4253 62.8049C35.3548 62.5394 35.4121 62.2569 35.383 61.9847C35.333 61.8181 35.3484 61.6392 35.3467 61.4659C35.3326 61.4316 35.3043 61.3639 35.2898 61.3295H35.2667C35.2263 61.7326 35.1873 61.7662 35.1752 62.219C35.1547 62.1969 35.1137 62.1528 35.0932 62.1313C35.0927 61.9964 35.0915 61.8622 35.0838 61.7284C35.0261 61.5305 35.0577 61.3182 35.041 61.1137C34.9828 60.9158 35.0149 60.7031 34.9987 60.4986C34.9401 60.3007 34.9722 60.0879 34.9555 59.8834C34.9555 59.8834 34.7841 58.324 34.7841 58.324C34.7683 58.3025 34.7362 58.2599 34.7204 58.2389C34.6184 58.8466 34.6777 61.0121 34.4459 62.6799C34.4266 62.6579 34.3886 62.6143 34.3698 62.5923C34.2475 62.018 34.2395 60.8985 34.2373 60.8477C34.2099 60.7954 34.183 60.7432 34.1565 60.6909C34.1531 60.8154 34.1539 60.9431 34.1172 61.0621C34.0971 61.2835 34.1364 61.5137 34.0753 61.7285C34.0406 62.0519 34.1082 62.3862 34.0325 62.7025C34.0094 63.0511 34.0372 63.4018 34.0146 63.7504C33.9359 64.101 34.0086 64.4696 33.9718 64.827C33.9013 65.092 33.9581 65.3745 33.9294 65.6467C33.876 65.8251 33.8953 66.0163 33.8953 66.2014H33.6392C33.6229 65.8804 33.6772 65.5503 33.605 65.2371C33.5699 64.9136 33.6387 64.5788 33.5618 64.263C33.5353 64.0078 33.5866 63.7427 33.5195 63.4941C33.5088 63.3156 33.5118 63.1368 33.5015 62.9589C33.4712 62.8415 33.4639 62.7189 33.4553 62.598C33.273 61.6021 33.3885 61.8549 33.1129 59.9286C32.8831 59.0351 32.8937 57.2177 32.7726 56.5293C32.7568 56.5083 32.7255 56.4652 32.7101 56.4437C32.6965 56.5303 32.6836 56.6175 32.6687 56.7036C32.6645 56.7543 32.4822 58.831 32.4152 59.2124C32.3385 59.6345 32.3375 60.3493 32.2792 60.5499C32.2621 60.7544 32.2942 60.9667 32.2364 61.1645C32.2125 61.4029 32.2591 61.6505 32.1936 61.8822C32.1646 62.1544 32.2219 62.4369 32.1509 62.7024C32.1342 62.949 32.1504 63.1966 32.1338 63.4427C32.0624 63.7082 32.1205 63.9907 32.0906 64.2629C32.0632 64.3639 32.0555 64.4695 32.0483 64.5746C32.0303 64.5541 31.9944 64.5131 31.9764 64.4921C31.8145 65.6393 31.9114 65.5525 31.8854 66.2053C31.2308 66.2166 30.5763 66.2217 29.9221 66.2043C29.8981 66.1032 29.7403 64.9439 29.6951 64.2403C29.6319 64.0322 29.6938 63.8041 29.6288 63.5965C29.6194 63.435 29.6199 63.2735 29.6109 63.1126C29.5339 62.7788 29.6041 62.4277 29.5681 62.0873C29.5423 61.993 29.482 61.3689 29.4775 61.3178C29.4236 61.0835 29.4608 60.8389 29.4403 60.6006C29.3595 60.2166 29.4352 59.8131 29.3971 59.4215C29.3172 59.0375 29.392 58.6341 29.3544 58.2424C29.2757 57.8923 29.348 57.5237 29.3116 57.1664C29.2406 56.9008 29.2979 56.6183 29.2693 56.3461C29.2278 56.2123 29.232 56.0688 29.2308 55.9293C29.2171 55.895 29.1906 55.8268 29.1773 55.793H29.1577C29.1308 56.1236 29.0614 57.0619 28.8228 64.1562V69.1086C28.9188 68.0011 29.0315 66.7023 29.0315 66.7022C29.0732 66.5554 29.0664 66.399 29.066 66.2467Z" fill="black"/>
</g>
<defs>
<clipPath id="clip0_4626_2033">
<rect width="96" height="96" fill="white"/>
</clipPath>
</defs>
</svg>
